HIERARCHY
ROOT Hips
{
	OFFSET 0.00000 0.00000 0.00000
	CHANNELS 6 Xposition Yposition Zposition Zrotation Yrotation Xrotation 
	JOINT LHipJoint
	{
		OFFSET 0 0 0
		CHANNELS 3 Zrotation Yrotation Xrotation
		JOINT LeftHip
		{
			OFFSET 1.58161 -1.81893 0.78828
			CHANNELS 3 Zrotation Yrotation Xrotation
			JOINT LeftKnee
			{
				OFFSET 2.53374 -6.96141 0.00000
				CHANNELS 3 Zrotation Yrotation Xrotation
				JOINT LeftAnkle
				{
					OFFSET 2.63509 -7.23986 0.00000
					CHANNELS 3 Zrotation Yrotation Xrotation
					JOINT LeftToe
					{
						OFFSET 0.14115 -0.38781 2.05350
						CHANNELS 3 Zrotation Yrotation Xrotation
						End Site
						{
							OFFSET 0.00000 -0.00000 1.05543
						}
					}
				}
			}
		}
	}
	JOINT RHipJoint
	{
		OFFSET 0 0 0
		CHANNELS 3 Zrotation Yrotation Xrotation
		JOINT RightHip
		{
			OFFSET -1.11138 -1.81893 0.78828
			CHANNELS 3 Zrotation Yrotation Xrotation
			JOINT RightKnee
			{
				OFFSET -2.58392 -7.09926 0.00000
				CHANNELS 3 Zrotation Yrotation Xrotation
				JOINT RightAnkle
				{
					OFFSET -2.66423 -7.31992 0.00000
					CHANNELS 3 Zrotation Yrotation Xrotation
					JOINT RightToe
					{
						OFFSET -0.18831 -0.51739 2.12114
						CHANNELS 3 Zrotation Yrotation Xrotation
						End Site
						{
							OFFSET -0.00000 -0.00000 1.09845
						}
					}
				}
			}
		}
	}
	JOINT lowerback
	{
		OFFSET 0 0 0
		CHANNELS 3 Zrotation Yrotation Xrotation
		JOINT Chest
		{
			OFFSET -0.01511 1.97958 -0.08829
			CHANNELS 3 Zrotation Yrotation Xrotation
			JOINT Chest2
			{
				OFFSET 0.08344 1.97334 -0.04330
				CHANNELS 3 Zrotation Yrotation Xrotation
				JOINT lowerneck
				{
					OFFSET 0 0 0
					CHANNELS 3 Zrotation Yrotation Xrotation
					JOINT Neck
					{
						OFFSET 0.00559 1.76246 0.31246
						CHANNELS 3 Zrotation Yrotation Xrotation
						JOINT Head
						{
							OFFSET -0.07011 1.80354 -0.30524
							CHANNELS 3 Zrotation Yrotation Xrotation
							End Site
							{
								OFFSET -0.02385 1.83547 -0.13906
							}
						}
					}
				}
				JOINT LeftCollar
				{
					OFFSET 0 0 0
					CHANNELS 3 Zrotation Yrotation Xrotation
					JOINT LeftShoulder
					{
						OFFSET 3.20667 1.30156 -0.60240
CHANNELS 3 Zrotation Xrotation Yrotation
						JOINT LeftElbow
						{
OFFSET 0 -4.956630 0.000000
CHANNELS 3 Zrotation Xrotation Yrotation
							JOINT LeftWrist
							{
OFFSET 0 -3.381770 0.000000
CHANNELS 3 Zrotation Xrotation Yrotation
								JOINT lhand
								{
									OFFSET 0 0 0
CHANNELS 3 Zrotation Xrotation Yrotation
									JOINT LFingers
									{
OFFSET 0 -0.662910 0.000000
CHANNELS 3 Zrotation Xrotation Yrotation
										End Site
										{
OFFSET 0 -0.534450 0.000000
										}
									}
								}
								JOINT LThumb
								{
OFFSET 0 0.000000 0.000000
CHANNELS 3 Zrotation Xrotation Yrotation
									End Site
									{
OFFSET 0 -0.542610 0.542610
									}
								}
							}
						}
					}
				}
				JOINT RightCollar
				{
					OFFSET 0 0 0
					CHANNELS 3 Zrotation Yrotation Xrotation
					JOINT RightShoulder
					{
						OFFSET -3.06877 1.34672 -0.60964
CHANNELS 3 Zrotation Xrotation Yrotation
						JOINT RightElbow
						{
OFFSET 0 -5.083650 0.000000
CHANNELS 3 Zrotation Xrotation Yrotation
							JOINT RightWrist
							{
OFFSET 0 -3.359840 0.000000
CHANNELS 3 Zrotation Xrotation Yrotation
								JOINT rhand
								{
									OFFSET 0 0 0
CHANNELS 3 Zrotation Xrotation Yrotation
									JOINT RFingers
									{
OFFSET 0 -0.820760 0.000000
CHANNELS 3 Zrotation Xrotation Yrotation
										End Site
										{
OFFSET 0 -0.661720 0.000000
										}
									}
								}
								JOINT RThumb
								{
OFFSET 0 0.000000 0.000000
CHANNELS 3 Zrotation Xrotation Yrotation
									End Site
									{
OFFSET 0 -0.671820 0.671820
									}
								}
							}
						}
					}
				}
			}
		}
	}
}
MOTION
Frames: 4
Frame Time: 0.008333333333333333
0.076000 17.881200 -9.560400 -5.679400 -0.854100 8.040500 0.000000 0.000000 0.000000 -10.574000 -3.377700 -13.641500 2.745600 10.271500 29.860300 1.220100 -5.265500 -19.801400 0.228900 -3.079300 -8.499700 0.000000 0.000000 0.000000 22.231300 7.776400 -13.595700 -2.532400 -9.896600 28.642600 -0.971600 0.656800 -18.424000 -0.013300 -0.745900 2.050000 -1.104100 -0.131600 -9.109600 4.505000 -0.271900 -0.726600 5.308600 -0.197900 4.386900 -0.188100 -1.357200 -19.385600 -3.754500 -0.512400 36.950900 -1.729400 -0.795500 16.566900 -0.000000 -0.000000 0.000000 0.775400 -3.702400 -30.999800 11.848200 -19.576600 2.051200 34.651100 13.598700 -16.855500 0.000000 0.000000 0.000000 -7.125000 0.000000 0.000000 6.814300 50.075900 -0.856100 -0.000000 -0.000000 0.000000 -4.870000 -0.428200 26.232800 -13.685800 -22.283700 -2.707800 -19.861100 -10.687300 -8.781700 0.000000 0.000000 0.000000 7.125000 0.000000 -0.000000 5.064600 20.668900 2.962400
0.075438 17.878484 -9.560119 -5.843860 -0.896807 7.988521 0.000000 0.000000 0.000000 -10.407854 -3.221669 -13.696570 2.754497 10.286672 29.910031 1.215698 -5.274397 -19.764125 0.189096 -2.799362 -7.720762 0.000000 0.000000 0.000000 22.416083 7.711871 -13.556083 -2.528935 -9.890231 28.622089 -0.951745 0.881106 -18.165135 -0.029034 -1.095612 3.011942 -0.912105 -0.071566 -9.156053 4.510713 -0.214302 -0.669376 5.213352 -0.167649 4.466320 -0.164124 -1.358698 -19.347201 -3.746727 -0.527479 36.918214 -1.731179 -0.796624 16.539646 0.000000 0.000000 0.000000 0.836370 -3.808325 -31.211088 11.808771 -19.517222 2.037994 30.687574 13.512630 -19.762960 0.000000 0.000000 0.000000 -7.125000 0.000000 0.000000 2.393358 52.633086 -0.431089 0.000000 0.000000 0.000000 -4.810809 -0.499753 26.101775 -13.716613 -22.328187 -2.719507 -19.727453 -10.693950 -8.792564 0.000000 0.000000 0.000000 7.125000 0.000000 0.000000 5.160785 20.665622 3.019530
0.075662 17.879522 -9.561235 -5.891584 -0.909392 7.989540 0.000000 0.000000 0.000000 -10.359492 -3.170151 -13.759323 2.764966 10.304551 29.968581 1.220202 -5.240424 -19.804208 0.204997 -2.914512 -8.040910 0.000000 0.000000 0.000000 22.467890 7.707413 -13.530524 -2.517087 -9.868932 28.553470 -0.944201 0.908524 -18.083600 -0.033069 -1.173957 3.227626 -0.834052 -0.041394 -9.181290 4.500710 -0.181936 -0.666984 5.162458 -0.150146 4.479558 -0.092476 -1.344044 -19.347481 -3.833687 -0.495758 36.985588 -1.778623 -0.785873 16.574908 0.000000 0.000000 0.000000 0.858748 -3.824580 -31.299091 11.803743 -19.509708 2.036314 26.258063 12.824543 -22.547135 0.000000 0.000000 0.000000 -7.125000 0.000000 0.000000 -2.928122 54.787588 0.739918 0.000000 0.000000 0.000000 -4.785147 -0.544414 26.045489 -13.717478 -22.329454 -2.719863 -19.631786 -10.703655 -8.774091 0.000000 0.000000 0.000000 7.125000 0.000000 0.000000 5.229641 20.690982 3.057103
0.076348 17.880024 -9.562776 -5.970500 -0.910638 7.992305 0.000000 0.000000 0.000000 -10.267302 -3.188733 -13.789923 2.777655 10.326189 30.039512 1.224706 -5.278070 -19.839225 0.198551 -2.869063 -7.914460 0.000000 0.000000 0.000000 22.552382 7.714201 -13.496351 -2.504307 -9.845739 28.478763 -0.939656 0.924712 -18.033978 -0.040220 -1.292988 3.555317 -0.728734 -0.017763 -9.187010 4.515475 -0.161930 -0.670763 5.120455 -0.138103 4.476652 -0.090154 -1.333155 -19.386927 -3.866723 -0.462661 37.103388 -1.792058 -0.776689 16.647342 0.000000 0.000000 0.000000 0.836867 -3.821690 -31.283728 11.810282 -19.519483 2.038467 21.447746 11.653137 -25.155557 0.000000 0.000000 0.000000 -7.125000 0.000000 0.000000 -9.008122 56.513902 2.604291 0.000000 0.000000 0.000000 -4.796574 -0.570685 26.054875 -13.737461 -22.358106 -2.727411 -19.656607 -10.779491 -8.762070 0.000000 0.000000 0.000000 7.125000 0.000000 0.000000 5.211738 20.702149 3.045240
